# xmcd
#
# Track frame offsets:
#	150
#	19896
#	36628
#	53962
#	73142
#	87897
#
# Disc length: 1410 seconds
#
# Revision: 2
# Processed by: cddbd v1.5.1PL0 Copyright (c) Steve Scherf et al.
# Submitted via: audiograbber 1.83.01
#
DISCID=53058006
DTITLE=Gina Villalobos - Live from KXLU Radio
DYEAR=2004
DGENRE=Country
TTITLE0=You don't like me
TTITLE1=Why
TTITLE2=Not enough
TTITLE3=Can't come down
TTITLE4=Gina and Cowboy Nick
TTITLE5=So much for dying
EXTD=
EXTT0=
EXTT1=
EXTT2=
EXTT3=
EXTT4=
EXTT5=
PLAYORDER=
